<?xml version="1.0" encoding="UTF-8"?>
<svg xmlns="http://www.w3.org/2000/svg" version="1.1" viewBox="0 0 193.7 78.300003" fill="#ffffff">
  <path d="m 193.7,61.4 -8.3,0.6 c -12.1,0 -21.9,-10.6 -21.9,-22.7 0,-12.1 9.9,-22.1 22.1,-22.1 l 7.9,0 L 193.4,8.3000001 193.4,0 156.5,0 145.2,0 131.8,0 c -12.1,0 -22,9.9 -22,22 0,0.3 0,0.5 0,0.8 l 0,55.1 16.6,0 0,-34.4 c 1.7,0.4 3.6,0.7 5.4,0.7 l 8.8,0 0,-14.3 -6.7,0 c -3.6,0 -6.6,-3 -6.6,-6.6 0,-3.6 3,-6.6 6.6,-6.6 l 11.3,0 c 0,0 9.2,0 9.2,0 -1.2,0 -3.5,7.1 -3.9,8.2 -1,3 -1.4,6 -1.6,9.2 -0.8,9.5 0.3,19.6 5.6,27.7 4.3,6.6 10.9,11.6 18.4,14.1 3.5,1.2 7.2,1.7 10.9,1.7 l 9.9,0 0,-16.2 z"/>
  <path d="m 79.3,0.1 -7,0 -17.7,0 -54.6,0 0,0.7 0,15.9 0,61.3 14.9,0 1.7,0 7.7,0 C 43.5,78 59.2,62.3 59.2,43.1 l 0,-7.3 c 0,-7 -2.1,-13.6 -5.7,-19.1 l 18.7,0 0,0 4.9,0 c 3.6,0 6.6,3 6.6,6.6 0,3.6 -3,6.6 -6.6,6.6 l -6.7,0 0,18 6.7,0 c 3.6,0 6.6,3 6.6,6.6 0,3.6 -3,6.6 -6.6,6.6 l -13.7,0 0,16.7 c 1.3,0.3 2.6,0.5 4,0.5 L 79.2,78 c 12.1,0 22,-9.9 22,-22 l 0,0 c 0,-6.7 -3.1,-12.8 -7.9,-16.8 4.8,-4.1 7.9,-10.1 7.9,-16.8 l 0,0 C 101.3,10 91.4,0.1 79.3,0.1 Z M 44.6,39.2 c 0,12.1 -9.9,22.1 -22.1,22.1 l -5.9,0 0,-44.2 5.9,0 c 12.2,0 22.1,9.9 22.1,22.1 l 0,0 z" />
</svg>
