<?xml version="1.0" encoding="utf-8"?>
<svg version="1.1" id="Layer_1" xmlns="http://www.w3.org/2000/svg" xmlns:xlink="http://www.w3.org/1999/xlink" x="0px" y="0px"
	 viewBox="0 0 248.7 120.5" enable-background="new 0 0 248.7 120.5" xml:space="preserve">
<g>
	<g>
		<path d="M226.8,84l-8.3,0.6c-12.1,0-21.9-10.6-21.9-22.7s9.9-22.1,22.1-22.1h7.9l-0.1-8.9v-8.3h-36.9h-11.3h-13.4
			c-12.1,0-22,9.9-22,22c0,0.3,0,0.5,0,0.8v55.1h16.6V66.1c1.7,0.4,3.6,0.7,5.4,0.7h8.8l0-14.3H167c-3.6,0-6.6-3-6.6-6.6
			c0-3.6,3-6.6,6.6-6.6l11.3,0c0,0,9.2,0,9.2,0c-1.2,0-3.5,7.1-3.9,8.2c-1,3-1.4,6-1.6,9.2c-0.8,9.5,0.3,19.6,5.6,27.7
			C191.9,91,198.5,96,206,98.5c3.5,1.2,7.2,1.7,10.9,1.7h9.9V84z"/>
		<path d="M112.4,22.7h-7H87.7H33.1v0.7v15.9v61.3H48h1.7h7.7c19.2,0,34.9-15.7,34.9-34.9v-7.3c0-7-2.1-13.6-5.7-19.1h18.7v0h4.9
			c3.6,0,6.6,3,6.6,6.6c0,3.6-3,6.6-6.6,6.6h-6.7l0,18h6.7c3.6,0,6.6,3,6.6,6.6c0,3.6-3,6.6-6.6,6.6H96.5l0,16.7
			c1.3,0.3,2.6,0.5,4,0.5l11.8-0.3c12.1,0,22-9.9,22-22v0c0-6.7-3.1-12.8-7.9-16.8c4.8-4.1,7.9-10.1,7.9-16.8v0
			C134.4,32.6,124.5,22.7,112.4,22.7z M77.7,61.8c0,12.1-9.9,22.1-22.1,22.1h-5.9V39.7h5.9C67.8,39.7,77.7,49.6,77.7,61.8L77.7,61.8
			z"/>
	</g>
	<g>
		<path d="M112.4,23h-7H87.7H33.1v0.7v15.9v61.3H48h1.7h7.7c19.2,0,34.9-15.7,34.9-34.9v-7.3c0-7-2.1-13.6-5.7-19.1h18.7v0h4.9
			c3.6,0,6.6,3,6.6,6.6s-3,6.6-6.6,6.6h-6.7l0,18h6.7c3.6,0,6.6,3,6.6,6.6c0,3.6-3,6.6-6.6,6.6H96.5l0,16.7c1.3,0.3,2.6,0.5,4,0.5
			l11.8-0.3c12.1,0,22-9.9,22-22v0c0-6.7-3.1-12.8-7.9-16.8c4.8-4.1,7.9-10.1,7.9-16.8v0C134.4,32.9,124.5,23,112.4,23z M77.7,62.1
			c0,12.1-9.9,22.1-22.1,22.1h-5.9V40h5.9C67.8,40,77.7,50,77.7,62.1L77.7,62.1z"/>
		<path d="M226.8,84.4c0-0.1,0-0.1,0-0.1c-7,1.3-14.5,0.1-20.4-3.9c-5.9-4-9.9-10.8-9.9-17.9c0-7.1,3.9-14,9.7-18.1
			c5.9-4.1,13.4-5.3,20.4-4.1c0-5.7-0.1-11.5-0.1-17.2c-18,0-36-0.1-54-0.1c-5.2,0-10.5,0-15.3,1.7c-5.5,2-10.3,6.2-12.4,11.6
			c-1.8,4.5-1.8,9.5-1.8,14.4c0,16.7,0,33.5,0.1,50.2c5.5,0,11.1,0,16.6,0c0-11.5,0-23,0-34.5c4.7,0.7,9.5,0.9,14.2,0.7
			c0-4.8,0-9.6-0.1-14.4c-4.2,0.5-9.3,0.6-11.9-2.7c-2.3-2.9-1.2-7.7,2-9.4c1.8-0.9,3.9-1,5.9-1c5.9,0,11.8,0,17.6,0
			c-4.6,9.4-6.8,20.2-5.1,30.6c1.7,10.4,7.7,20.2,16.8,25.5c2.9,1.7,6,2.9,9.2,3.7c3.2,0.8,6.6,1.2,9.9,1.4c1.7,0.1,3.4,0.1,5,0
			c0.8,0,1.7-0.1,2.5-0.1c0.3,0,0.9,0.1,1.1-0.1c0.2-0.2,0.1-0.9,0.1-1.2c0-3.9,0-7.7,0-11.6C226.8,87.5,226.7,84.9,226.8,84.4z"/>
	</g>
</g>
<g>
</g>
<g>
</g>
<g>
</g>
<g>
</g>
<g>
</g>
<g>
</g>
</svg>
