<svg height="512pt" viewBox="-27 0 512 512" width="512pt" xmlns="http://www.w3.org/2000/svg"><path d="m0 0 44.265625 461.5 186.480469 50.5 183.84375-50.5 44.265625-461.5zm0 0" fill="#fd982c"/><path d="m230.746094 0v512l183.84375-50.5 44.265625-461.5zm0 0" fill="#fa502e"/><path d="m367.171875 159.378906-195.859375-.003906 3.277344 35.828125h191.652344l-15.488282 200.191406-120.171875 34.953125-128.984375-40.117187v-81.183594h80.125v24.179687l48.875 15.101563 46.308594-15.113281 3.371094-59.941406h-177.4375l-20.03125-190.964844h284.363281zm0 0" fill="#fff"/><g fill="#deecf1"><path d="m230.746094 82.308594h136.425781v77.070312h-136.425781zm0 0"/><path d="m280.277344 273.273438-3.371094 59.941406-46.160156 15.066406v82.019531l120.007812-34.90625 15.488282-200.191406h-135.496094v78.070313zm0 0"/></g></svg>